<svg id="visual" viewBox="0 0 900 600" width="900" height="600" xmlns="http://www.w3.org/2000/svg" xmlns:xlink="http://www.w3.org/1999/xlink" version="1.1"><g stroke-width="1" stroke-linejoin="bevel"><path d="M433 286.1L473 294.7L475 291Z" fill="#089bab" stroke="#089bab"></path><path d="M475 291L493 256L433 286.1Z" fill="#081c2a" stroke="#081c2a"></path><path d="M442 392.7L499 323L473 294.7Z" fill="#081c2a" stroke="#081c2a"></path><path d="M473 294.7L499 323L475 291Z" fill="#00101c" stroke="#00101c"></path><path d="M475 291L499 323L493 256Z" fill="#0d3547" stroke="#0d3547"></path><path d="M493 256L405 246L433 286.1Z" fill="#0e5065" stroke="#0e5065"></path><path d="M405 246L395 262.3L433 286.1Z" fill="#089bab" stroke="#089bab"></path><path d="M405 246L399 247.3L395 262.3Z" fill="#081c2a" stroke="#081c2a"></path><path d="M395 262.3L382 291.7L433 286.1Z" fill="#089bab" stroke="#089bab"></path><path d="M433 286.1L403 373.7L473 294.7Z" fill="#068b9e" stroke="#068b9e"></path><path d="M366 293.9L382 291.7L395 262.3Z" fill="#081c2a" stroke="#081c2a"></path><path d="M499 323L550 288.9L493 256Z" fill="#089bab" stroke="#089bab"></path><path d="M369 226L366 293.9L395 262.3Z" fill="#0a6d82" stroke="#0a6d82"></path><path d="M382 291.7L379 343.6L433 286.1Z" fill="#0e5065" stroke="#0e5065"></path><path d="M515 326.1L550 288.9L499 323Z" fill="#0d3547" stroke="#0d3547"></path><path d="M555 213.6L515 206.4L493 256Z" fill="#081c2a" stroke="#081c2a"></path><path d="M493 256L457 154.7L405 246Z" fill="#00101c" stroke="#00101c"></path><path d="M405 246L369 226L399 247.3Z" fill="#0b2838" stroke="#0b2838"></path><path d="M366 293.9L379 343.6L382 291.7Z" fill="#089bab" stroke="#089bab"></path><path d="M499 323L496 384.4L515 326.1Z" fill="#077c90" stroke="#077c90"></path><path d="M397 168.3L369 226L405 246Z" fill="#0e4256" stroke="#0e4256"></path><path d="M399 247.3L369 226L395 262.3Z" fill="#0a6d82" stroke="#0a6d82"></path><path d="M515 326.1L553 318.1L550 288.9Z" fill="#077c90" stroke="#077c90"></path><path d="M379 343.6L403 373.7L433 286.1Z" fill="#077c90" stroke="#077c90"></path><path d="M515 326.1L550 402.4L553 318.1Z" fill="#0a6d82" stroke="#0a6d82"></path><path d="M471 392.9L496 384.4L499 323Z" fill="#0e4256" stroke="#0e4256"></path><path d="M403 373.7L442 392.7L473 294.7Z" fill="#0a6d82" stroke="#0a6d82"></path><path d="M442 392.7L471 392.9L499 323Z" fill="#077c90" stroke="#077c90"></path><path d="M327 227.6L347 316.1L366 293.9Z" fill="#0a6d82" stroke="#0a6d82"></path><path d="M366 293.9L347 316.1L379 343.6Z" fill="#0e5065" stroke="#0e5065"></path><path d="M368 374.4L398 388.6L403 373.7Z" fill="#081c2a" stroke="#081c2a"></path><path d="M368 374.4L403 373.7L379 343.6Z" fill="#077c90" stroke="#077c90"></path><path d="M414 403.6L426 405.9L442 392.7Z" fill="#00101c" stroke="#00101c"></path><path d="M579 277.3L555 213.6L550 288.9Z" fill="#0d5e74" stroke="#0d5e74"></path><path d="M550 288.9L555 213.6L493 256Z" fill="#089bab" stroke="#089bab"></path><path d="M553 318.1L579 277.3L550 288.9Z" fill="#0d3547" stroke="#0d3547"></path><path d="M440 413.9L470 407.7L442 392.7Z" fill="#0e5065" stroke="#0e5065"></path><path d="M442 392.7L470 407.7L471 392.9Z" fill="#0d3547" stroke="#0d3547"></path><path d="M471 392.9L470 407.7L496 384.4Z" fill="#0d5e74" stroke="#0d5e74"></path><path d="M347 316.1L368 374.4L379 343.6Z" fill="#00101c" stroke="#00101c"></path><path d="M414 403.6L403 373.7L398 388.6Z" fill="#081c2a" stroke="#081c2a"></path><path d="M414 403.6L442 392.7L403 373.7Z" fill="#0d5e74" stroke="#0d5e74"></path><path d="M416 407.6L414 403.6L416 417.4Z" fill="#068b9e" stroke="#068b9e"></path><path d="M544 162.4L457 154.7L515 206.4Z" fill="#0d3547" stroke="#0d3547"></path><path d="M515 206.4L457 154.7L493 256Z" fill="#077c90" stroke="#077c90"></path><path d="M457 154.7L397 168.3L405 246Z" fill="#0b2838" stroke="#0b2838"></path><path d="M416 417.4L414 403.6L398 388.6Z" fill="#0e4256" stroke="#0e4256"></path><path d="M414 403.6L416 407.6L426 405.9Z" fill="#081c2a" stroke="#081c2a"></path><path d="M426 405.9L440 413.9L442 392.7Z" fill="#068b9e" stroke="#068b9e"></path><path d="M416 417.4L440 413.9L426 405.9Z" fill="#0e4256" stroke="#0e4256"></path><path d="M631 312L587 270.4L579 277.3Z" fill="#0d3547" stroke="#0d3547"></path><path d="M579 277.3L587 270.4L555 213.6Z" fill="#081c2a" stroke="#081c2a"></path><path d="M506 409.9L496 384.4L470 407.7Z" fill="#068b9e" stroke="#068b9e"></path><path d="M506 409.9L513 403.9L496 384.4Z" fill="#00101c" stroke="#00101c"></path><path d="M496 384.4L550 402.4L515 326.1Z" fill="#0d5e74" stroke="#0d5e74"></path><path d="M553 318.1L631 312L579 277.3Z" fill="#081c2a" stroke="#081c2a"></path><path d="M500 426.7L506 409.9L470 407.7Z" fill="#0d5e74" stroke="#0d5e74"></path><path d="M330 194.4L327 227.6L369 226Z" fill="#068b9e" stroke="#068b9e"></path><path d="M369 226L327 227.6L366 293.9Z" fill="#0d5e74" stroke="#0d5e74"></path><path d="M358 451.3L416 417.4L398 388.6Z" fill="#0e4256" stroke="#0e4256"></path><path d="M416 407.6L416 417.4L426 405.9Z" fill="#089bab" stroke="#089bab"></path><path d="M440 413.9L500 426.7L470 407.7Z" fill="#0e5065" stroke="#0e5065"></path><path d="M475 117.7L445 138.4L457 154.7Z" fill="#0d5e74" stroke="#0d5e74"></path><path d="M457 154.7L412 140.7L397 168.3Z" fill="#077c90" stroke="#077c90"></path><path d="M445 138.4L412 140.7L457 154.7Z" fill="#0a6d82" stroke="#0a6d82"></path><path d="M397 168.3L330 194.4L369 226Z" fill="#089bab" stroke="#089bab"></path><path d="M587 270.4L587 216L555 213.6Z" fill="#077c90" stroke="#077c90"></path><path d="M555 213.6L544 162.4L515 206.4Z" fill="#0e5065" stroke="#0e5065"></path><path d="M572 168.4L544 162.4L555 213.6Z" fill="#081c2a" stroke="#081c2a"></path><path d="M445 138.4L431 133.4L412 140.7Z" fill="#0e5065" stroke="#0e5065"></path><path d="M441 104.6L431 133.4L445 138.4Z" fill="#0d5e74" stroke="#0d5e74"></path><path d="M503 481.1L500 426.7L440 413.9Z" fill="#0d3547" stroke="#0d3547"></path><path d="M506 409.9L540 416.6L513 403.9Z" fill="#0d5e74" stroke="#0d5e74"></path><path d="M324 179.4L330 194.4L397 168.3Z" fill="#0b2838" stroke="#0b2838"></path><path d="M540 416.6L550 402.4L513 403.9Z" fill="#081c2a" stroke="#081c2a"></path><path d="M513 403.9L550 402.4L496 384.4Z" fill="#0d5e74" stroke="#0d5e74"></path><path d="M249 322.1L313 341.9L237 281.3Z" fill="#0e5065" stroke="#0e5065"></path><path d="M347 316.1L313 341.9L368 374.4Z" fill="#0b2838" stroke="#0b2838"></path><path d="M368 374.4L358 451.3L398 388.6Z" fill="#081c2a" stroke="#081c2a"></path><path d="M301 350.1L249 322.1L261 344.7Z" fill="#0d5e74" stroke="#0d5e74"></path><path d="M500 426.7L540 416.6L506 409.9Z" fill="#089bab" stroke="#089bab"></path><path d="M587 270.4L609 229L587 216Z" fill="#00101c" stroke="#00101c"></path><path d="M587 216L572 168.4L555 213.6Z" fill="#081c2a" stroke="#081c2a"></path><path d="M637 271.3L609 229L587 270.4Z" fill="#0e5065" stroke="#0e5065"></path><path d="M652 204.6L572 168.4L587 216Z" fill="#00101c" stroke="#00101c"></path><path d="M531 122.7L475 117.7L457 154.7Z" fill="#068b9e" stroke="#068b9e"></path><path d="M324 179.4L312 202.4L330 194.4Z" fill="#077c90" stroke="#077c90"></path><path d="M330 194.4L312 202.4L327 227.6Z" fill="#077c90" stroke="#077c90"></path><path d="M483 109.6L475 117.7L531 122.7Z" fill="#077c90" stroke="#077c90"></path><path d="M337 135.6L324 179.4L397 168.3Z" fill="#077c90" stroke="#077c90"></path><path d="M301 350.1L313 341.9L249 322.1Z" fill="#081c2a" stroke="#081c2a"></path><path d="M313 341.9L301 350.1L368 374.4Z" fill="#0d5e74" stroke="#0d5e74"></path><path d="M531 122.7L457 154.7L544 162.4Z" fill="#0e4256" stroke="#0e4256"></path><path d="M475 117.7L461 105.9L445 138.4Z" fill="#081c2a" stroke="#081c2a"></path><path d="M431 133.4L441 104.6L412 140.7Z" fill="#0e5065" stroke="#0e5065"></path><path d="M483 109.6L461 105.9L475 117.7Z" fill="#0e5065" stroke="#0e5065"></path><path d="M412 140.7L337 135.6L397 168.3Z" fill="#068b9e" stroke="#068b9e"></path><path d="M572 168.4L531 122.7L544 162.4Z" fill="#0d3547" stroke="#0d3547"></path><path d="M461 105.9L441 104.6L445 138.4Z" fill="#00101c" stroke="#00101c"></path><path d="M637 397.6L553 318.1L550 402.4Z" fill="#00101c" stroke="#00101c"></path><path d="M637 397.6L631 312L553 318.1Z" fill="#0a6d82" stroke="#0a6d82"></path><path d="M449 58.9L447 100.7L461 105.9Z" fill="#0a6d82" stroke="#0a6d82"></path><path d="M461 105.9L447 100.7L441 104.6Z" fill="#0d3547" stroke="#0d3547"></path><path d="M331 95.7L337 135.6L412 140.7Z" fill="#0e4256" stroke="#0e4256"></path><path d="M631 312L637 271.3L587 270.4Z" fill="#0e4256" stroke="#0e4256"></path><path d="M609 229L652 204.6L587 216Z" fill="#081c2a" stroke="#081c2a"></path><path d="M331 95.7L412 140.7L357 54.6Z" fill="#077c90" stroke="#077c90"></path><path d="M324 179.4L274 166.1L312 202.4Z" fill="#00101c" stroke="#00101c"></path><path d="M631 312L647 291.7L637 271.3Z" fill="#00101c" stroke="#00101c"></path><path d="M304 418.9L358 451.3L368 374.4Z" fill="#0d5e74" stroke="#0d5e74"></path><path d="M454 513.3L503 481.1L440 413.9Z" fill="#081c2a" stroke="#081c2a"></path><path d="M337 135.6L316 142.3L324 179.4Z" fill="#081c2a" stroke="#081c2a"></path><path d="M313 341.9L347 316.1L237 281.3Z" fill="#077c90" stroke="#077c90"></path><path d="M500 426.7L546 457.4L540 416.6Z" fill="#081c2a" stroke="#081c2a"></path><path d="M540 416.6L587 451.6L550 402.4Z" fill="#0d3547" stroke="#0d3547"></path><path d="M631 312L718 306.3L647 291.7Z" fill="#077c90" stroke="#077c90"></path><path d="M503 481.1L546 457.4L500 426.7Z" fill="#00101c" stroke="#00101c"></path><path d="M301 350.1L304 418.9L368 374.4Z" fill="#068b9e" stroke="#068b9e"></path><path d="M347 316.1L327 227.6L237 281.3Z" fill="#0e4256" stroke="#0e4256"></path><path d="M301 350.1L273 379L304 418.9Z" fill="#081c2a" stroke="#081c2a"></path><path d="M454 513.3L440 413.9L416 417.4Z" fill="#0e5065" stroke="#0e5065"></path><path d="M261 344.7L273 379L301 350.1Z" fill="#0d3547" stroke="#0d3547"></path><path d="M647 291.7L661 274.1L637 271.3Z" fill="#081c2a" stroke="#081c2a"></path><path d="M637 271.3L657 231.1L609 229Z" fill="#0e4256" stroke="#0e4256"></path><path d="M718 306.3L661 274.1L647 291.7Z" fill="#077c90" stroke="#077c90"></path><path d="M531 122.7L546 96.9L483 109.6Z" fill="#00101c" stroke="#00101c"></path><path d="M485 56.9L449 58.9L461 105.9Z" fill="#00101c" stroke="#00101c"></path><path d="M572 168.4L546 96.9L531 122.7Z" fill="#0b2838" stroke="#0b2838"></path><path d="M630 123.7L546 96.9L572 168.4Z" fill="#0e5065" stroke="#0e5065"></path><path d="M661 274.1L657 231.1L637 271.3Z" fill="#0b2838" stroke="#0b2838"></path><path d="M237 281.3L327 227.6L312 202.4Z" fill="#0a6d82" stroke="#0a6d82"></path><path d="M261 344.7L256 372.6L273 379Z" fill="#0e5065" stroke="#0e5065"></path><path d="M657 231.1L652 204.6L609 229Z" fill="#0e4256" stroke="#0e4256"></path><path d="M525 483.3L530 481.4L546 457.4Z" fill="#077c90" stroke="#077c90"></path><path d="M503 481.1L525 483.3L546 457.4Z" fill="#0e5065" stroke="#0e5065"></path><path d="M657 231.1L656 208.3L652 204.6Z" fill="#081c2a" stroke="#081c2a"></path><path d="M652 204.6L630 123.7L572 168.4Z" fill="#0e4256" stroke="#0e4256"></path><path d="M699 214.6L656 208.3L657 231.1Z" fill="#089bab" stroke="#089bab"></path><path d="M589 475.3L587 451.6L546 457.4Z" fill="#077c90" stroke="#077c90"></path><path d="M546 457.4L587 451.6L540 416.6Z" fill="#077c90" stroke="#077c90"></path><path d="M316 142.3L274 166.1L324 179.4Z" fill="#0d3547" stroke="#0d3547"></path><path d="M587 451.6L637 397.6L550 402.4Z" fill="#068b9e" stroke="#068b9e"></path><path d="M203 210.6L237 281.3L312 202.4Z" fill="#068b9e" stroke="#068b9e"></path><path d="M247 363L261 344.7L249 322.1Z" fill="#089bab" stroke="#089bab"></path><path d="M247 363L256 372.6L261 344.7Z" fill="#00101c" stroke="#00101c"></path><path d="M273 379L274 418.4L304 418.9Z" fill="#0e5065" stroke="#0e5065"></path><path d="M188 320.1L247 363L249 322.1Z" fill="#0e5065" stroke="#0e5065"></path><path d="M485 56.9L461 105.9L483 109.6Z" fill="#089bab" stroke="#089bab"></path><path d="M447 100.7L449 58.9L441 104.6Z" fill="#0e5065" stroke="#0e5065"></path><path d="M337 135.6L331 95.7L316 142.3Z" fill="#089bab" stroke="#089bab"></path><path d="M265 138.3L260 154.6L274 166.1Z" fill="#0e5065" stroke="#0e5065"></path><path d="M357 54.6L412 140.7L441 104.6Z" fill="#0a6d82" stroke="#0a6d82"></path><path d="M248 423.6L273 379L256 372.6Z" fill="#0d3547" stroke="#0d3547"></path><path d="M248 423.6L274 418.4L273 379Z" fill="#0d5e74" stroke="#0d5e74"></path><path d="M262 453.7L355 508.3L358 451.3Z" fill="#068b9e" stroke="#068b9e"></path><path d="M546 96.9L485 56.9L483 109.6Z" fill="#068b9e" stroke="#068b9e"></path><path d="M409 517.4L416 417.4L358 451.3Z" fill="#0b2838" stroke="#0b2838"></path><path d="M409 517.4L454 513.3L416 417.4Z" fill="#081c2a" stroke="#081c2a"></path><path d="M503 481.1L518 600L525 483.3Z" fill="#0e4256" stroke="#0e4256"></path><path d="M582 522.3L589 475.3L530 481.4Z" fill="#00101c" stroke="#00101c"></path><path d="M718 306.3L684 254.1L661 274.1Z" fill="#0a6d82" stroke="#0a6d82"></path><path d="M661 274.1L684 254.1L657 231.1Z" fill="#0e4256" stroke="#0e4256"></path><path d="M265 138.3L274 166.1L316 142.3Z" fill="#089bab" stroke="#089bab"></path><path d="M274 166.1L239 170.6L312 202.4Z" fill="#077c90" stroke="#077c90"></path><path d="M530 481.4L589 475.3L546 457.4Z" fill="#068b9e" stroke="#068b9e"></path><path d="M669 479.4L683 422.3L637 397.6Z" fill="#0d3547" stroke="#0d3547"></path><path d="M582 522.3L530 481.4L525 483.3Z" fill="#00101c" stroke="#00101c"></path><path d="M672 144.3L652 204.6L656 208.3Z" fill="#0e4256" stroke="#0e4256"></path><path d="M672 144.3L630 123.7L652 204.6Z" fill="#0e4256" stroke="#0e4256"></path><path d="M546 96.9L579 45.9L485 56.9Z" fill="#0d3547" stroke="#0d3547"></path><path d="M179 234.4L217 291.7L237 281.3Z" fill="#077c90" stroke="#077c90"></path><path d="M237 281.3L217 291.7L249 322.1Z" fill="#0e5065" stroke="#0e5065"></path><path d="M331 95.7L265 138.3L316 142.3Z" fill="#0e4256" stroke="#0e4256"></path><path d="M260 154.6L239 170.6L274 166.1Z" fill="#077c90" stroke="#077c90"></path><path d="M355 508.3L409 517.4L358 451.3Z" fill="#081c2a" stroke="#081c2a"></path><path d="M409 517.4L450 522.6L454 513.3Z" fill="#0e4256" stroke="#0e4256"></path><path d="M454 513.3L518 600L503 481.1Z" fill="#0d5e74" stroke="#0d5e74"></path><path d="M233 161.3L239 170.6L260 154.6Z" fill="#089bab" stroke="#089bab"></path><path d="M262 453.7L358 451.3L304 418.9Z" fill="#068b9e" stroke="#068b9e"></path><path d="M407 0L357 54.6L449 58.9Z" fill="#068b9e" stroke="#068b9e"></path><path d="M449 58.9L357 54.6L441 104.6Z" fill="#00101c" stroke="#00101c"></path><path d="M331 95.7L306 56.7L265 138.3Z" fill="#00101c" stroke="#00101c"></path><path d="M189 403.4L248 423.6L256 372.6Z" fill="#0a6d82" stroke="#0a6d82"></path><path d="M274 418.4L262 453.7L304 418.9Z" fill="#0b2838" stroke="#0b2838"></path><path d="M189 403.4L256 372.6L247 363Z" fill="#077c90" stroke="#077c90"></path><path d="M215 171.1L233 161.3L158 138.3Z" fill="#0a6d82" stroke="#0a6d82"></path><path d="M265 138.3L233 161.3L260 154.6Z" fill="#0a6d82" stroke="#0a6d82"></path><path d="M239 170.6L203 210.6L312 202.4Z" fill="#0d3547" stroke="#0d3547"></path><path d="M758 212.6L699 214.6L684 254.1Z" fill="#0a6d82" stroke="#0a6d82"></path><path d="M684 254.1L699 214.6L657 231.1Z" fill="#0e4256" stroke="#0e4256"></path><path d="M719 186.1L672 144.3L656 208.3Z" fill="#0e5065" stroke="#0e5065"></path><path d="M248 423.6L262 453.7L274 418.4Z" fill="#081c2a" stroke="#081c2a"></path><path d="M215 171.1L214 180.7L239 170.6Z" fill="#089bab" stroke="#089bab"></path><path d="M214 180.7L203 210.6L239 170.6Z" fill="#0e4256" stroke="#0e4256"></path><path d="M233 161.3L215 171.1L239 170.6Z" fill="#0e4256" stroke="#0e4256"></path><path d="M157 204L179 234.4L203 210.6Z" fill="#0e5065" stroke="#0e5065"></path><path d="M208 72.6L233 161.3L265 138.3Z" fill="#0d3547" stroke="#0d3547"></path><path d="M708 397.9L631 312L637 397.6Z" fill="#0d5e74" stroke="#0d5e74"></path><path d="M708 397.9L718 306.3L631 312Z" fill="#0d5e74" stroke="#0d5e74"></path><path d="M596 52.9L546 96.9L630 123.7Z" fill="#00101c" stroke="#00101c"></path><path d="M596 52.9L579 45.9L546 96.9Z" fill="#089bab" stroke="#089bab"></path><path d="M485 56.9L469 0L449 58.9Z" fill="#068b9e" stroke="#068b9e"></path><path d="M688 432.7L683 422.3L669 479.4Z" fill="#081c2a" stroke="#081c2a"></path><path d="M167 278.3L188 320.1L217 291.7Z" fill="#068b9e" stroke="#068b9e"></path><path d="M217 291.7L188 320.1L249 322.1Z" fill="#0a6d82" stroke="#0a6d82"></path><path d="M248 423.6L219 496.1L262 453.7Z" fill="#068b9e" stroke="#068b9e"></path><path d="M706 91.7L596 52.9L630 123.7Z" fill="#00101c" stroke="#00101c"></path><path d="M357 54.6L306 56.7L331 95.7Z" fill="#0d3547" stroke="#0d3547"></path><path d="M757 311L725 300.1L718 306.3Z" fill="#089bab" stroke="#089bab"></path><path d="M718 306.3L725 300.1L684 254.1Z" fill="#068b9e" stroke="#068b9e"></path><path d="M586 549.3L582 522.3L534 600Z" fill="#0d3547" stroke="#0d3547"></path><path d="M669 479.4L637 397.6L587 451.6Z" fill="#068b9e" stroke="#068b9e"></path><path d="M409 517.4L443 555.3L450 522.6Z" fill="#0b2838" stroke="#0b2838"></path><path d="M450 522.6L518 600L454 513.3Z" fill="#068b9e" stroke="#068b9e"></path><path d="M406 577.1L443 555.3L409 517.4Z" fill="#0d5e74" stroke="#0d5e74"></path><path d="M327 -11.3L302 53.9L306 56.7Z" fill="#0d5e74" stroke="#0d5e74"></path><path d="M306 56.7L302 53.9L265 138.3Z" fill="#077c90" stroke="#077c90"></path><path d="M327 -11.3L306 56.7L357 54.6Z" fill="#0e4256" stroke="#0e4256"></path><path d="M669 479.4L587 451.6L589 475.3Z" fill="#077c90" stroke="#077c90"></path><path d="M683 422.3L708 397.9L637 397.6Z" fill="#00101c" stroke="#00101c"></path><path d="M709 399.6L708 397.9L683 422.3Z" fill="#0d5e74" stroke="#0d5e74"></path><path d="M406 577.1L450 562.1L443 555.3Z" fill="#077c90" stroke="#077c90"></path><path d="M443 555.3L450 562.1L450 522.6Z" fill="#0d5e74" stroke="#0d5e74"></path><path d="M157 204L203 210.6L214 180.7Z" fill="#068b9e" stroke="#068b9e"></path><path d="M203 210.6L179 234.4L237 281.3Z" fill="#0d3547" stroke="#0d3547"></path><path d="M688 432.7L709 399.6L683 422.3Z" fill="#00101c" stroke="#00101c"></path><path d="M708 397.9L718 393.6L718 306.3Z" fill="#0b2838" stroke="#0b2838"></path><path d="M168 353.9L183 354.1L188 320.1Z" fill="#0d3547" stroke="#0d3547"></path><path d="M188 320.1L183 354.1L247 363Z" fill="#0b2838" stroke="#0b2838"></path><path d="M699 214.6L719 186.1L656 208.3Z" fill="#068b9e" stroke="#068b9e"></path><path d="M672 144.3L706 91.7L630 123.7Z" fill="#0d5e74" stroke="#0d5e74"></path><path d="M737 200L719 186.1L699 214.6Z" fill="#0d5e74" stroke="#0d5e74"></path><path d="M482 0L485 56.9L575 22.7Z" fill="#0a6d82" stroke="#0a6d82"></path><path d="M482 0L469 0L485 56.9Z" fill="#081c2a" stroke="#081c2a"></path><path d="M575 22.7L485 56.9L579 45.9Z" fill="#089bab" stroke="#089bab"></path><path d="M755 396.7L718 393.6L738 440.9Z" fill="#0b2838" stroke="#0b2838"></path><path d="M709 399.6L718 393.6L708 397.9Z" fill="#081c2a" stroke="#081c2a"></path><path d="M655 0L575 22.7L596 52.9Z" fill="#068b9e" stroke="#068b9e"></path><path d="M596 52.9L575 22.7L579 45.9Z" fill="#0b2838" stroke="#0b2838"></path><path d="M469 0L407 0L449 58.9Z" fill="#0d3547" stroke="#0d3547"></path><path d="M167 268L167 278.3L217 291.7Z" fill="#081c2a" stroke="#081c2a"></path><path d="M737 200L721 172.7L719 186.1Z" fill="#081c2a" stroke="#081c2a"></path><path d="M719 186.1L721 172.7L672 144.3Z" fill="#0a6d82" stroke="#0a6d82"></path><path d="M179 234.4L167 268L217 291.7Z" fill="#068b9e" stroke="#068b9e"></path><path d="M667 505.3L669 479.4L589 475.3Z" fill="#0e5065" stroke="#0e5065"></path><path d="M738 440.9L718 393.6L709 399.6Z" fill="#081c2a" stroke="#081c2a"></path><path d="M158 395L189 403.4L183 354.1Z" fill="#0d3547" stroke="#0d3547"></path><path d="M183 354.1L189 403.4L247 363Z" fill="#068b9e" stroke="#068b9e"></path><path d="M407 0L375 0L357 54.6Z" fill="#0e4256" stroke="#0e4256"></path><path d="M758 212.6L737 200L699 214.6Z" fill="#00101c" stroke="#00101c"></path><path d="M758 212.6L684 254.1L725 300.1Z" fill="#089bab" stroke="#089bab"></path><path d="M153 353.7L168 353.9L188 320.1Z" fill="#089bab" stroke="#089bab"></path><path d="M534 600L582 522.3L525 483.3Z" fill="#0d3547" stroke="#0d3547"></path><path d="M582 522.3L620 532.4L589 475.3Z" fill="#0e5065" stroke="#0e5065"></path><path d="M375 0L360 0L357 54.6Z" fill="#0d5e74" stroke="#0d5e74"></path><path d="M377 585.3L409 517.4L355 508.3Z" fill="#0d3547" stroke="#0d3547"></path><path d="M377 585.3L406 577.1L409 517.4Z" fill="#0e5065" stroke="#0e5065"></path><path d="M450 562.1L518 600L450 522.6Z" fill="#0d5e74" stroke="#0d5e74"></path><path d="M377 585.3L355 508.3L303 570.4Z" fill="#077c90" stroke="#077c90"></path><path d="M586 549.3L620 532.4L582 522.3Z" fill="#077c90" stroke="#077c90"></path><path d="M760 353.7L757 311L718 306.3Z" fill="#0b2838" stroke="#0b2838"></path><path d="M620 532.4L667 505.3L589 475.3Z" fill="#0e5065" stroke="#0e5065"></path><path d="M738 440.9L709 399.6L688 432.7Z" fill="#0d3547" stroke="#0d3547"></path><path d="M718 393.6L760 353.7L718 306.3Z" fill="#0a6d82" stroke="#0a6d82"></path><path d="M126 299L188 320.1L167 278.3Z" fill="#0b2838" stroke="#0b2838"></path><path d="M126 299L153 353.7L188 320.1Z" fill="#0a6d82" stroke="#0a6d82"></path><path d="M179 234.4L126 241L167 268Z" fill="#089bab" stroke="#089bab"></path><path d="M215 171.1L157 204L214 180.7Z" fill="#081c2a" stroke="#081c2a"></path><path d="M158 138.3L157 204L215 171.1Z" fill="#00101c" stroke="#00101c"></path><path d="M126 299L167 278.3L119 276.3Z" fill="#0a6d82" stroke="#0a6d82"></path><path d="M168 353.9L158 395L183 354.1Z" fill="#0e4256" stroke="#0e4256"></path><path d="M757 311L758 212.6L725 300.1Z" fill="#0d5e74" stroke="#0d5e74"></path><path d="M766 133.9L736 135.4L721 172.7Z" fill="#0e5065" stroke="#0e5065"></path><path d="M303 570.4L355 508.3L262 453.7Z" fill="#0a6d82" stroke="#0a6d82"></path><path d="M406 577.1L459 600L450 562.1Z" fill="#0e4256" stroke="#0e4256"></path><path d="M763 361L760 353.7L718 393.6Z" fill="#081c2a" stroke="#081c2a"></path><path d="M757 311L781 304.3L758 212.6Z" fill="#00101c" stroke="#00101c"></path><path d="M736 135.4L672 144.3L721 172.7Z" fill="#0b2838" stroke="#0b2838"></path><path d="M736 135.4L706 91.7L672 144.3Z" fill="#0e5065" stroke="#0e5065"></path><path d="M153 353.7L158 395L168 353.9Z" fill="#077c90" stroke="#077c90"></path><path d="M160 455.4L219 496.1L248 423.6Z" fill="#089bab" stroke="#089bab"></path><path d="M766 133.9L721 172.7L737 200Z" fill="#0e5065" stroke="#0e5065"></path><path d="M430 627.1L459 600L406 577.1Z" fill="#068b9e" stroke="#068b9e"></path><path d="M755 396.7L763 361L718 393.6Z" fill="#0b2838" stroke="#0b2838"></path><path d="M760 353.7L781 304.3L757 311Z" fill="#089bab" stroke="#089bab"></path><path d="M160 455.4L248 423.6L189 403.4Z" fill="#0e4256" stroke="#0e4256"></path><path d="M482 0L429 -35.1L469 0Z" fill="#00101c" stroke="#00101c"></path><path d="M469 0L429 -35.1L407 0Z" fill="#089bab" stroke="#089bab"></path><path d="M407 0L429 -35.1L375 0Z" fill="#0a6d82" stroke="#0a6d82"></path><path d="M375 0L429 -35.1L360 0Z" fill="#081c2a" stroke="#081c2a"></path><path d="M655 0L429 -35.1L482 0Z" fill="#0e4256" stroke="#0e4256"></path><path d="M429 -35.1L327 -11.3L360 0Z" fill="#0d3547" stroke="#0d3547"></path><path d="M360 0L327 -11.3L357 54.6Z" fill="#00101c" stroke="#00101c"></path><path d="M302 53.9L208 72.6L265 138.3Z" fill="#0a6d82" stroke="#0a6d82"></path><path d="M738 440.9L688 432.7L721 497.1Z" fill="#089bab" stroke="#089bab"></path><path d="M459 600L518 600L450 562.1Z" fill="#0d5e74" stroke="#0d5e74"></path><path d="M586 549.3L643 600L620 532.4Z" fill="#0b2838" stroke="#0b2838"></path><path d="M620 532.4L643 600L667 505.3Z" fill="#068b9e" stroke="#068b9e"></path><path d="M219 27.9L208 72.6L302 53.9Z" fill="#00101c" stroke="#00101c"></path><path d="M721 497.1L688 432.7L669 479.4Z" fill="#081c2a" stroke="#081c2a"></path><path d="M219 496.1L303 570.4L262 453.7Z" fill="#0b2838" stroke="#0b2838"></path><path d="M799 359.9L760 353.7L763 361Z" fill="#00101c" stroke="#00101c"></path><path d="M799 359.9L781 304.3L760 353.7Z" fill="#0e5065" stroke="#0e5065"></path><path d="M518 600L534 600L525 483.3Z" fill="#0a6d82" stroke="#0a6d82"></path><path d="M119 276.3L167 278.3L167 268Z" fill="#068b9e" stroke="#068b9e"></path><path d="M153 353.7L119 387.7L158 395Z" fill="#0d5e74" stroke="#0d5e74"></path><path d="M158 107.4L158 138.3L233 161.3Z" fill="#0e5065" stroke="#0e5065"></path><path d="M157 204L126 241L179 234.4Z" fill="#0d5e74" stroke="#0d5e74"></path><path d="M135 186.1L126 241L157 204Z" fill="#089bab" stroke="#089bab"></path><path d="M766 133.9L738 107.7L736 135.4Z" fill="#068b9e" stroke="#068b9e"></path><path d="M736 135.4L738 107.7L706 91.7Z" fill="#0d3547" stroke="#0d3547"></path><path d="M706 91.7L655 0L596 52.9Z" fill="#00101c" stroke="#00101c"></path><path d="M766 133.9L737 200L802 175.4Z" fill="#0e4256" stroke="#0e4256"></path><path d="M158 138.3L135 186.1L157 204Z" fill="#077c90" stroke="#077c90"></path><path d="M534 600L558 600L586 549.3Z" fill="#077c90" stroke="#077c90"></path><path d="M83 265.9L119 276.3L126 241Z" fill="#00101c" stroke="#00101c"></path><path d="M126 241L119 276.3L167 268Z" fill="#089bab" stroke="#089bab"></path><path d="M303 570.4L335 600L377 585.3Z" fill="#081c2a" stroke="#081c2a"></path><path d="M377 585.3L430 627.1L406 577.1Z" fill="#0d3547" stroke="#0d3547"></path><path d="M329 600L335 600L303 570.4Z" fill="#0a6d82" stroke="#0a6d82"></path><path d="M558 600L580 600L586 549.3Z" fill="#077c90" stroke="#077c90"></path><path d="M667 505.3L721 497.1L669 479.4Z" fill="#0e5065" stroke="#0e5065"></path><path d="M291 600L329 600L303 570.4Z" fill="#077c90" stroke="#077c90"></path><path d="M125 413.6L160 455.4L158 395Z" fill="#0b2838" stroke="#0b2838"></path><path d="M158 395L160 455.4L189 403.4Z" fill="#0d3547" stroke="#0d3547"></path><path d="M289 600L291 600L303 570.4Z" fill="#0a6d82" stroke="#0a6d82"></path><path d="M107 332.6L153 353.7L126 299Z" fill="#0d5e74" stroke="#0d5e74"></path><path d="M761 535.3L721 497.1L716 600Z" fill="#068b9e" stroke="#068b9e"></path><path d="M738 440.9L775 419.6L755 396.7Z" fill="#0d3547" stroke="#0d3547"></path><path d="M160 455.4L195 505.3L219 496.1Z" fill="#0a6d82" stroke="#0a6d82"></path><path d="M327 -11.3L261 0L302 53.9Z" fill="#00101c" stroke="#00101c"></path><path d="M208 72.6L158 107.4L233 161.3Z" fill="#00101c" stroke="#00101c"></path><path d="M266 -12.1L261 0L327 -11.3Z" fill="#089bab" stroke="#089bab"></path><path d="M158 138.3L138 130.7L135 186.1Z" fill="#0d3547" stroke="#0d3547"></path><path d="M115 88.4L158 107.4L163 0Z" fill="#0d3547" stroke="#0d3547"></path><path d="M802 175.4L737 200L758 212.6Z" fill="#0d3547" stroke="#0d3547"></path><path d="M366 632.1L430 627.1L377 585.3Z" fill="#077c90" stroke="#077c90"></path><path d="M459 600L529 642.1L518 600Z" fill="#0e4256" stroke="#0e4256"></path><path d="M518 600L529 642.1L534 600Z" fill="#089bab" stroke="#089bab"></path><path d="M534 600L529 642.1L558 600Z" fill="#089bab" stroke="#089bab"></path><path d="M558 600L529 642.1L580 600Z" fill="#068b9e" stroke="#068b9e"></path><path d="M366 632.1L377 585.3L335 600Z" fill="#068b9e" stroke="#068b9e"></path><path d="M664 0L706 91.7L693 0Z" fill="#0d3547" stroke="#0d3547"></path><path d="M664 0L655 0L706 91.7Z" fill="#0e4256" stroke="#0e4256"></path><path d="M575 22.7L655 0L482 0Z" fill="#068b9e" stroke="#068b9e"></path><path d="M261 0L219 27.9L302 53.9Z" fill="#0d3547" stroke="#0d3547"></path><path d="M756 506.4L775 419.6L738 440.9Z" fill="#068b9e" stroke="#068b9e"></path><path d="M755 396.7L799 359.9L763 361Z" fill="#081c2a" stroke="#081c2a"></path><path d="M429 -35.1L266 -12.1L327 -11.3Z" fill="#077c90" stroke="#077c90"></path><path d="M261 0L183 -3.1L219 27.9Z" fill="#089bab" stroke="#089bab"></path><path d="M115 88.4L138 130.7L158 107.4Z" fill="#089bab" stroke="#089bab"></path><path d="M158 107.4L138 130.7L158 138.3Z" fill="#0e4256" stroke="#0e4256"></path><path d="M73 254.9L83 265.9L126 241Z" fill="#077c90" stroke="#077c90"></path><path d="M83 265.9L126 299L119 276.3Z" fill="#081c2a" stroke="#081c2a"></path><path d="M83 265.9L107 332.6L126 299Z" fill="#00101c" stroke="#00101c"></path><path d="M693 0L706 91.7L739 17.9Z" fill="#0e4256" stroke="#0e4256"></path><path d="M655 0L744 -29.1L429 -35.1Z" fill="#089bab" stroke="#089bab"></path><path d="M840 209.4L801 220.6L856 257Z" fill="#077c90" stroke="#077c90"></path><path d="M781 304.3L801 220.6L758 212.6Z" fill="#068b9e" stroke="#068b9e"></path><path d="M107 332.6L119 387.7L153 353.7Z" fill="#0a6d82" stroke="#0a6d82"></path><path d="M775 419.6L799 359.9L755 396.7Z" fill="#089bab" stroke="#089bab"></path><path d="M119 387.7L125 413.6L158 395Z" fill="#089bab" stroke="#089bab"></path><path d="M105 491.6L172 557.3L195 505.3Z" fill="#0b2838" stroke="#0b2838"></path><path d="M289 600L303 570.4L235 603.1Z" fill="#068b9e" stroke="#068b9e"></path><path d="M316 652.1L366 632.1L335 600Z" fill="#00101c" stroke="#00101c"></path><path d="M235 603.1L303 570.4L219 496.1Z" fill="#089bab" stroke="#089bab"></path><path d="M316 652.1L335 600L329 600Z" fill="#068b9e" stroke="#068b9e"></path><path d="M316 652.1L329 600L291 600Z" fill="#00101c" stroke="#00101c"></path><path d="M801 220.6L802 175.4L758 212.6Z" fill="#068b9e" stroke="#068b9e"></path><path d="M773 72.4L706 91.7L738 107.7Z" fill="#0e5065" stroke="#0e5065"></path><path d="M840 209.4L802 175.4L801 220.6Z" fill="#0a6d82" stroke="#0a6d82"></path><path d="M107 332.6L107 398.9L119 387.7Z" fill="#089bab" stroke="#089bab"></path><path d="M119 387.7L107 398.9L125 413.6Z" fill="#0e4256" stroke="#0e4256"></path><path d="M125 413.6L109 421.7L160 455.4Z" fill="#068b9e" stroke="#068b9e"></path><path d="M430 627.1L529 642.1L459 600Z" fill="#0e4256" stroke="#0e4256"></path><path d="M580 600L643 600L586 549.3Z" fill="#0e5065" stroke="#0e5065"></path><path d="M316 652.1L529 642.1L430 627.1Z" fill="#0b2838" stroke="#0b2838"></path><path d="M639 621.1L643 600L580 600Z" fill="#00101c" stroke="#00101c"></path><path d="M773 72.4L738 107.7L766 133.9Z" fill="#0e4256" stroke="#0e4256"></path><path d="M664 0L744 -29.1L655 0Z" fill="#0e5065" stroke="#0e5065"></path><path d="M73 254.9L126 241L135 186.1Z" fill="#0d5e74" stroke="#0d5e74"></path><path d="M107 332.6L47 376.4L107 398.9Z" fill="#068b9e" stroke="#068b9e"></path><path d="M35 419.3L109 421.7L107 398.9Z" fill="#068b9e" stroke="#068b9e"></path><path d="M107 398.9L109 421.7L125 413.6Z" fill="#089bab" stroke="#089bab"></path><path d="M209 600L235 603.1L219 496.1Z" fill="#0d5e74" stroke="#0d5e74"></path><path d="M775 419.6L817 372.4L799 359.9Z" fill="#0a6d82" stroke="#0a6d82"></path><path d="M890 322.1L856 257L781 304.3Z" fill="#00101c" stroke="#00101c"></path><path d="M846 417.7L817 372.4L775 419.6Z" fill="#0d5e74" stroke="#0d5e74"></path><path d="M756 506.4L738 440.9L721 497.1Z" fill="#068b9e" stroke="#068b9e"></path><path d="M761 535.3L756 506.4L721 497.1Z" fill="#081c2a" stroke="#081c2a"></path><path d="M789 63.7L773 72.4L766 133.9Z" fill="#0e5065" stroke="#0e5065"></path><path d="M3 173.7L73 254.9L135 186.1Z" fill="#068b9e" stroke="#068b9e"></path><path d="M83 265.9L54 294.9L107 332.6Z" fill="#0e5065" stroke="#0e5065"></path><path d="M529 642.1L639 621.1L580 600Z" fill="#0e4256" stroke="#0e4256"></path><path d="M716 600L721 497.1L667 505.3Z" fill="#0d3547" stroke="#0d3547"></path><path d="M773 72.4L739 17.9L706 91.7Z" fill="#0e5065" stroke="#0e5065"></path><path d="M209 600L219 496.1L195 505.3Z" fill="#0d3547" stroke="#0d3547"></path><path d="M289 600L316 652.1L291 600Z" fill="#0d5e74" stroke="#0d5e74"></path><path d="M163 0L158 107.4L208 72.6Z" fill="#068b9e" stroke="#068b9e"></path><path d="M138 130.7L83 113.6L135 186.1Z" fill="#0e4256" stroke="#0e4256"></path><path d="M174 0L208 72.6L219 27.9Z" fill="#0d5e74" stroke="#0d5e74"></path><path d="M856 257L801 220.6L781 304.3Z" fill="#0a6d82" stroke="#0a6d82"></path><path d="M854 106.9L789 63.7L766 133.9Z" fill="#0d5e74" stroke="#0d5e74"></path><path d="M145 -2.3L183 -3.1L50 -41.1Z" fill="#068b9e" stroke="#068b9e"></path><path d="M266 -12.1L183 -3.1L261 0Z" fill="#0e4256" stroke="#0e4256"></path><path d="M105 491.6L195 505.3L160 455.4Z" fill="#0e5065" stroke="#0e5065"></path><path d="M235 603.1L316 652.1L289 600Z" fill="#089bab" stroke="#089bab"></path><path d="M366 632.1L316 652.1L430 627.1Z" fill="#0d5e74" stroke="#0d5e74"></path><path d="M716 600L667 505.3L643 600Z" fill="#0a6d82" stroke="#0a6d82"></path><path d="M756 506.4L810 522.3L775 419.6Z" fill="#0e4256" stroke="#0e4256"></path><path d="M183 -3.1L174 0L219 27.9Z" fill="#089bab" stroke="#089bab"></path><path d="M839 160.3L766 133.9L802 175.4Z" fill="#077c90" stroke="#077c90"></path><path d="M773 72.4L789 63.7L739 17.9Z" fill="#089bab" stroke="#089bab"></path><path d="M0 297.7L54 294.9L0 259.9Z" fill="#068b9e" stroke="#068b9e"></path><path d="M73 254.9L54 294.9L83 265.9Z" fill="#0d5e74" stroke="#0d5e74"></path><path d="M172 557.3L209 600L195 505.3Z" fill="#00101c" stroke="#00101c"></path><path d="M235 603.1L163 609.1L316 652.1Z" fill="#0d3547" stroke="#0d3547"></path><path d="M890 322.1L781 304.3L799 359.9Z" fill="#0e5065" stroke="#0e5065"></path><path d="M840 209.4L839 160.3L802 175.4Z" fill="#0a6d82" stroke="#0a6d82"></path><path d="M857 148.3L839 160.3L900 182.1Z" fill="#068b9e" stroke="#068b9e"></path><path d="M183 -3.1L163 0L174 0Z" fill="#068b9e" stroke="#068b9e"></path><path d="M174 0L163 0L208 72.6Z" fill="#00101c" stroke="#00101c"></path><path d="M35 419.3L105 491.6L109 421.7Z" fill="#0b2838" stroke="#0b2838"></path><path d="M109 421.7L105 491.6L160 455.4Z" fill="#0b2838" stroke="#0b2838"></path><path d="M172 557.3L163 567.4L209 600Z" fill="#081c2a" stroke="#081c2a"></path><path d="M88 522.6L163 567.4L172 557.3Z" fill="#068b9e" stroke="#068b9e"></path><path d="M99 35.6L83 113.6L115 88.4Z" fill="#0e5065" stroke="#0e5065"></path><path d="M115 88.4L83 113.6L138 130.7Z" fill="#068b9e" stroke="#068b9e"></path><path d="M762 567.3L785 524.4L761 535.3Z" fill="#0b2838" stroke="#0b2838"></path><path d="M761 535.3L785 524.4L756 506.4Z" fill="#00101c" stroke="#00101c"></path><path d="M817 372.4L890 322.1L799 359.9Z" fill="#0e4256" stroke="#0e4256"></path><path d="M701 649.1L716 600L643 600Z" fill="#081c2a" stroke="#081c2a"></path><path d="M852 499.4L846 417.7L775 419.6Z" fill="#0d3547" stroke="#0d3547"></path><path d="M789 63.7L760 0L739 17.9Z" fill="#0b2838" stroke="#0b2838"></path><path d="M739 17.9L744 -29.1L693 0Z" fill="#0b2838" stroke="#0b2838"></path><path d="M693 0L744 -29.1L664 0Z" fill="#00101c" stroke="#00101c"></path><path d="M785 0L760 0L789 63.7Z" fill="#0b2838" stroke="#0b2838"></path><path d="M701 649.1L725 600L716 600Z" fill="#089bab" stroke="#089bab"></path><path d="M716 600L762 567.3L761 535.3Z" fill="#0a6d82" stroke="#0a6d82"></path><path d="M54 294.9L47 376.4L107 332.6Z" fill="#0d3547" stroke="#0d3547"></path><path d="M725 600L762 567.3L716 600Z" fill="#0d3547" stroke="#0d3547"></path><path d="M785 524.4L810 522.3L756 506.4Z" fill="#0e4256" stroke="#0e4256"></path><path d="M183 -3.1L145 -2.3L163 0Z" fill="#0e5065" stroke="#0e5065"></path><path d="M163 0L99 35.6L115 88.4Z" fill="#081c2a" stroke="#081c2a"></path><path d="M50 -41.1L37 -8.1L43 0Z" fill="#0a6d82" stroke="#0a6d82"></path><path d="M900 182.1L839 160.3L840 209.4Z" fill="#089bab" stroke="#089bab"></path><path d="M839 160.3L854 106.9L766 133.9Z" fill="#068b9e" stroke="#068b9e"></path><path d="M785 0L744 -29.1L760 0Z" fill="#0d3547" stroke="#0d3547"></path><path d="M760 0L744 -29.1L739 17.9Z" fill="#00101c" stroke="#00101c"></path><path d="M145 -2.3L133 0L163 0Z" fill="#089bab" stroke="#089bab"></path><path d="M796 595.1L810 522.3L785 524.4Z" fill="#0a6d82" stroke="#0a6d82"></path><path d="M133 0L99 35.6L163 0Z" fill="#089bab" stroke="#089bab"></path><path d="M817 -2.1L785 0L789 63.7Z" fill="#0e4256" stroke="#0e4256"></path><path d="M857 148.3L854 106.9L839 160.3Z" fill="#081c2a" stroke="#081c2a"></path><path d="M892 328.9L817 372.4L900 397.9Z" fill="#00101c" stroke="#00101c"></path><path d="M892 328.9L890 322.1L817 372.4Z" fill="#081c2a" stroke="#081c2a"></path><path d="M856 257L900 182.1L840 209.4Z" fill="#0a6d82" stroke="#0a6d82"></path><path d="M857 148.3L900 130.9L854 106.9Z" fill="#0e5065" stroke="#0e5065"></path><path d="M116 600L163 609.1L163 567.4Z" fill="#0d3547" stroke="#0d3547"></path><path d="M163 567.4L163 609.1L209 600Z" fill="#0d3547" stroke="#0d3547"></path><path d="M209 600L163 609.1L235 603.1Z" fill="#068b9e" stroke="#068b9e"></path><path d="M88 522.6L172 557.3L105 491.6Z" fill="#0d5e74" stroke="#0d5e74"></path><path d="M56 536.1L88 522.6L105 491.6Z" fill="#0e4256" stroke="#0e4256"></path><path d="M725 600L757 600L762 567.3Z" fill="#00101c" stroke="#00101c"></path><path d="M762 567.3L796 595.1L785 524.4Z" fill="#0b2838" stroke="#0b2838"></path><path d="M781 631.1L757 600L725 600Z" fill="#0e4256" stroke="#0e4256"></path><path d="M701 649.1L643 600L639 621.1Z" fill="#0b2838" stroke="#0b2838"></path><path d="M900 318L892 328.9L900 397.9Z" fill="#0a6d82" stroke="#0a6d82"></path><path d="M890 322.1L900 297.7L856 257Z" fill="#089bab" stroke="#089bab"></path><path d="M47 376.4L35 419.3L107 398.9Z" fill="#0d5e74" stroke="#0d5e74"></path><path d="M0 399L35 419.3L47 376.4Z" fill="#0e5065" stroke="#0e5065"></path><path d="M529 642.1L701 649.1L639 621.1Z" fill="#089bab" stroke="#089bab"></path><path d="M316 652.1L701 649.1L529 642.1Z" fill="#0d3547" stroke="#0d3547"></path><path d="M900 318L900 297.7L890 322.1Z" fill="#077c90" stroke="#077c90"></path><path d="M900 397.9L817 372.4L846 417.7Z" fill="#089bab" stroke="#089bab"></path><path d="M892 328.9L900 318L890 322.1Z" fill="#077c90" stroke="#077c90"></path><path d="M900 554.4L852 499.4L810 522.3Z" fill="#00101c" stroke="#00101c"></path><path d="M810 522.3L852 499.4L775 419.6Z" fill="#0d3547" stroke="#0d3547"></path><path d="M0 259.9L54 294.9L73 254.9Z" fill="#0e5065" stroke="#0e5065"></path><path d="M54 294.9L0 297.7L47 376.4Z" fill="#0a6d82" stroke="#0a6d82"></path><path d="M0 259.9L73 254.9L0 256.1Z" fill="#0e5065" stroke="#0e5065"></path><path d="M0 256.1L73 254.9L-7 210.4Z" fill="#00101c" stroke="#00101c"></path><path d="M3 173.7L135 186.1L83 113.6Z" fill="#00101c" stroke="#00101c"></path><path d="M925 278.9L900 182.1L856 257Z" fill="#0d5e74" stroke="#0d5e74"></path><path d="M900 182.1L900 174.7L857 148.3Z" fill="#068b9e" stroke="#068b9e"></path><path d="M831 0L817 -2.1L789 63.7Z" fill="#0d5e74" stroke="#0d5e74"></path><path d="M910 467.7L900 397.9L846 417.7Z" fill="#068b9e" stroke="#068b9e"></path><path d="M831 0L789 63.7L887 77.6Z" fill="#0e5065" stroke="#0e5065"></path><path d="M785 0L817 -2.1L744 -29.1Z" fill="#089bab" stroke="#089bab"></path><path d="M781 631.1L781 608.1L757 600Z" fill="#0e5065" stroke="#0e5065"></path><path d="M757 600L796 595.1L762 567.3Z" fill="#0e4256" stroke="#0e4256"></path><path d="M781 608.1L796 595.1L757 600Z" fill="#0a6d82" stroke="#0a6d82"></path><path d="M90 571.3L116 600L163 567.4Z" fill="#00101c" stroke="#00101c"></path><path d="M163 609.1L0 613.1L316 652.1Z" fill="#0d5e74" stroke="#0d5e74"></path><path d="M90 571.3L163 567.4L88 522.6Z" fill="#0d3547" stroke="#0d3547"></path><path d="M0 159.4L3 173.7L83 113.6Z" fill="#0d3547" stroke="#0d3547"></path><path d="M56 536.1L90 571.3L88 522.6Z" fill="#00101c" stroke="#00101c"></path><path d="M900 174.7L900 145.3L857 148.3Z" fill="#0e5065" stroke="#0e5065"></path><path d="M900 145.3L900 143.6L857 148.3Z" fill="#0b2838" stroke="#0b2838"></path><path d="M3 173.7L-7 210.4L73 254.9Z" fill="#0b2838" stroke="#0b2838"></path><path d="M-52 316.7L0 297.7L0 259.9Z" fill="#089bab" stroke="#089bab"></path><path d="M-52 316.7L-38 332.1L0 297.7Z" fill="#0e4256" stroke="#0e4256"></path><path d="M133 0L80 0L99 35.6Z" fill="#0d5e74" stroke="#0d5e74"></path><path d="M0 36.9L5 122.6L83 113.6Z" fill="#00101c" stroke="#00101c"></path><path d="M50 -41.1L80 0L133 0Z" fill="#089bab" stroke="#089bab"></path><path d="M80 0L50 -41.1L43 0Z" fill="#0a6d82" stroke="#0a6d82"></path><path d="M-38 332.1L47 376.4L0 297.7Z" fill="#0d5e74" stroke="#0d5e74"></path><path d="M-38 332.1L0 399L47 376.4Z" fill="#0a6d82" stroke="#0a6d82"></path><path d="M0 469.4L56 536.1L105 491.6Z" fill="#068b9e" stroke="#068b9e"></path><path d="M951 72.4L906 134.6L900 174.7Z" fill="#0a6d82" stroke="#0a6d82"></path><path d="M900 174.7L906 134.6L900 145.3Z" fill="#00101c" stroke="#00101c"></path><path d="M900 145.3L906 134.6L900 143.6Z" fill="#0e5065" stroke="#0e5065"></path><path d="M900 297.7L925 278.9L856 257Z" fill="#0d3547" stroke="#0d3547"></path><path d="M900 318L925 278.9L900 297.7Z" fill="#077c90" stroke="#077c90"></path><path d="M954 290.1L925 278.9L900 318Z" fill="#00101c" stroke="#00101c"></path><path d="M906 134.6L900 130.9L900 143.6Z" fill="#0e4256" stroke="#0e4256"></path><path d="M900 143.6L900 130.9L857 148.3Z" fill="#081c2a" stroke="#081c2a"></path><path d="M887 77.6L789 63.7L854 106.9Z" fill="#0b2838" stroke="#0b2838"></path><path d="M817 -2.1L875 0L744 -29.1Z" fill="#068b9e" stroke="#068b9e"></path><path d="M3 173.7L-10 160.4L-7 210.4Z" fill="#0a6d82" stroke="#0a6d82"></path><path d="M0 148.3L0 159.4L83 113.6Z" fill="#00101c" stroke="#00101c"></path><path d="M0 469.4L105 491.6L35 419.3Z" fill="#0d5e74" stroke="#0d5e74"></path><path d="M90 571.3L95 600L116 600Z" fill="#0e4256" stroke="#0e4256"></path><path d="M5 122.6L0 148.3L83 113.6Z" fill="#077c90" stroke="#077c90"></path><path d="M0 159.4L-10 160.4L3 173.7Z" fill="#00101c" stroke="#00101c"></path><path d="M951 72.4L900 174.7L900 182.1Z" fill="#089bab" stroke="#089bab"></path><path d="M900 130.9L900 113.4L854 106.9Z" fill="#0e4256" stroke="#0e4256"></path><path d="M906 134.6L900 113.4L900 130.9Z" fill="#0b2838" stroke="#0b2838"></path><path d="M0 36.9L83 113.6L99 35.6Z" fill="#077c90" stroke="#077c90"></path><path d="M701 649.1L781 631.1L725 600Z" fill="#0e5065" stroke="#0e5065"></path><path d="M781 608.1L781 631.1L796 595.1Z" fill="#077c90" stroke="#077c90"></path><path d="M900 495.6L910 467.7L852 499.4Z" fill="#0a6d82" stroke="#0a6d82"></path><path d="M5 122.6L0 135.7L0 148.3Z" fill="#0d5e74" stroke="#0d5e74"></path><path d="M0 148.3L-10 160.4L0 159.4Z" fill="#0e4256" stroke="#0e4256"></path><path d="M900 113.4L887 77.6L854 106.9Z" fill="#0d3547" stroke="#0d3547"></path><path d="M5 122.6L0 131.6L0 135.7Z" fill="#0a6d82" stroke="#0a6d82"></path><path d="M0 135.7L-10 160.4L0 148.3Z" fill="#077c90" stroke="#077c90"></path><path d="M49 600L95 600L90 571.3Z" fill="#077c90" stroke="#077c90"></path><path d="M116 600L95 600L163 609.1Z" fill="#0e5065" stroke="#0e5065"></path><path d="M0 131.6L-10 160.4L0 135.7Z" fill="#068b9e" stroke="#068b9e"></path><path d="M-38 332.1L0 460.3L0 399Z" fill="#00101c" stroke="#00101c"></path><path d="M0 399L0 460.3L35 419.3Z" fill="#00101c" stroke="#00101c"></path><path d="M56 536.1L49 600L90 571.3Z" fill="#0e4256" stroke="#0e4256"></path><path d="M0 469.4L0 460.3L-52 316.7Z" fill="#089bab" stroke="#089bab"></path><path d="M900 495.6L852 499.4L909 510.6Z" fill="#089bab" stroke="#089bab"></path><path d="M852 499.4L910 467.7L846 417.7Z" fill="#0d5e74" stroke="#0d5e74"></path><path d="M900 397.9L954 290.1L900 318Z" fill="#0a6d82" stroke="#0a6d82"></path><path d="M0 259.9L0 256.1L-52 316.7Z" fill="#0e4256" stroke="#0e4256"></path><path d="M0 460.3L0 469.4L35 419.3Z" fill="#0d5e74" stroke="#0d5e74"></path><path d="M909 510.6L852 499.4L900 554.4Z" fill="#00101c" stroke="#00101c"></path><path d="M-52 316.7L0 256.1L-55 185.3Z" fill="#0e5065" stroke="#0e5065"></path><path d="M5 122.6L0 36.9L0 131.6Z" fill="#0e5065" stroke="#0e5065"></path><path d="M0 131.6L-55 185.3L-10 160.4Z" fill="#0a6d82" stroke="#0a6d82"></path><path d="M80 0L43 0L99 35.6Z" fill="#0a6d82" stroke="#0a6d82"></path><path d="M36 0L43 0L37 -8.1Z" fill="#0e4256" stroke="#0e4256"></path><path d="M942 491.6L954 290.1L900 397.9Z" fill="#0d3547" stroke="#0d3547"></path><path d="M925 278.9L954 290.1L900 182.1Z" fill="#0d5e74" stroke="#0d5e74"></path><path d="M900 0L887 77.6L931 42.7Z" fill="#068b9e" stroke="#068b9e"></path><path d="M-52 316.7L0 499.6L0 469.4Z" fill="#0d5e74" stroke="#0d5e74"></path><path d="M0 469.4L0 499.6L56 536.1Z" fill="#068b9e" stroke="#068b9e"></path><path d="M133 0L145 -2.3L50 -41.1Z" fill="#0e5065" stroke="#0e5065"></path><path d="M43 0L0 36.9L99 35.6Z" fill="#081c2a" stroke="#081c2a"></path><path d="M887 77.6L951 72.4L931 42.7Z" fill="#077c90" stroke="#077c90"></path><path d="M900 0L875 0L887 77.6Z" fill="#0e5065" stroke="#0e5065"></path><path d="M887 77.6L875 0L831 0Z" fill="#077c90" stroke="#077c90"></path><path d="M831 0L875 0L817 -2.1Z" fill="#0a6d82" stroke="#0a6d82"></path><path d="M-55 185.3L0 256.1L-7 210.4Z" fill="#0e4256" stroke="#0e4256"></path><path d="M-38 332.1L-52 316.7L0 460.3Z" fill="#089bab" stroke="#089bab"></path><path d="M900 495.6L942 491.6L910 467.7Z" fill="#081c2a" stroke="#081c2a"></path><path d="M910 467.7L942 491.6L900 397.9Z" fill="#0e5065" stroke="#0e5065"></path><path d="M900 554.4L810 522.3L871 600Z" fill="#0b2838" stroke="#0b2838"></path><path d="M50 -41.1L183 -3.1L266 -12.1Z" fill="#081c2a" stroke="#081c2a"></path><path d="M36 0L0 36.9L43 0Z" fill="#0d3547" stroke="#0d3547"></path><path d="M19 564.3L49 600L56 536.1Z" fill="#0e4256" stroke="#0e4256"></path><path d="M95 600L0 613.1L163 609.1Z" fill="#0e4256" stroke="#0e4256"></path><path d="M0 0L0 36.9L36 0Z" fill="#0e5065" stroke="#0e5065"></path><path d="M-10 160.4L-55 185.3L-7 210.4Z" fill="#0a6d82" stroke="#0a6d82"></path><path d="M429 -35.1L50 -41.1L266 -12.1Z" fill="#089bab" stroke="#089bab"></path><path d="M37 -8.1L0 0L36 0Z" fill="#0e4256" stroke="#0e4256"></path><path d="M0 36.9L-55 185.3L0 131.6Z" fill="#0a6d82" stroke="#0a6d82"></path><path d="M0 499.6L19 564.3L56 536.1Z" fill="#0a6d82" stroke="#0a6d82"></path><path d="M19 564.3L43 600L49 600Z" fill="#0e4256" stroke="#0e4256"></path><path d="M49 600L0 613.1L95 600Z" fill="#077c90" stroke="#077c90"></path><path d="M871 600L810 522.3L796 595.1Z" fill="#0b2838" stroke="#0b2838"></path><path d="M701 649.1L823 653.1L781 631.1Z" fill="#0d3547" stroke="#0d3547"></path><path d="M781 631.1L823 653.1L796 595.1Z" fill="#077c90" stroke="#077c90"></path><path d="M316 652.1L823 653.1L701 649.1Z" fill="#0d3547" stroke="#0d3547"></path><path d="M823 653.1L871 600L796 595.1Z" fill="#00101c" stroke="#00101c"></path><path d="M887 77.6L900 113.4L951 72.4Z" fill="#0d5e74" stroke="#0d5e74"></path><path d="M875 0L900 0L744 -29.1Z" fill="#081c2a" stroke="#081c2a"></path><path d="M900 581.1L942 491.6L900 554.4Z" fill="#068b9e" stroke="#068b9e"></path><path d="M900 554.4L942 491.6L909 510.6Z" fill="#00101c" stroke="#00101c"></path><path d="M909 510.6L942 491.6L900 495.6Z" fill="#068b9e" stroke="#068b9e"></path><path d="M951 72.4L900 113.4L906 134.6Z" fill="#068b9e" stroke="#068b9e"></path><path d="M21 -44.1L0 0L37 -8.1Z" fill="#0d5e74" stroke="#0d5e74"></path><path d="M0 36.9L0 0L-55 185.3Z" fill="#00101c" stroke="#00101c"></path><path d="M900 597.3L900 581.1L871 600Z" fill="#0a6d82" stroke="#0a6d82"></path><path d="M871 600L900 581.1L900 554.4Z" fill="#0d5e74" stroke="#0d5e74"></path><path d="M954 290.1L951 72.4L900 182.1Z" fill="#0e5065" stroke="#0e5065"></path><path d="M429 -35.1L21 -44.1L50 -41.1Z" fill="#0e5065" stroke="#0e5065"></path><path d="M50 -41.1L21 -44.1L37 -8.1Z" fill="#077c90" stroke="#077c90"></path><path d="M744 -29.1L21 -44.1L429 -35.1Z" fill="#0b2838" stroke="#0b2838"></path><path d="M900 600L900 597.3L871 600Z" fill="#0e5065" stroke="#0e5065"></path><path d="M900 581.1L900 597.3L942 491.6Z" fill="#0e4256" stroke="#0e4256"></path><path d="M823 653.1L900 600L871 600Z" fill="#0d3547" stroke="#0d3547"></path><path d="M900 597.3L900 600L942 491.6Z" fill="#0e5065" stroke="#0e5065"></path><path d="M-8 594.1L0 600L19 564.3Z" fill="#0e4256" stroke="#0e4256"></path><path d="M19 564.3L0 600L43 600Z" fill="#077c90" stroke="#077c90"></path><path d="M43 600L0 613.1L49 600Z" fill="#00101c" stroke="#00101c"></path><path d="M-8 594.1L19 564.3L0 499.6Z" fill="#0d3547" stroke="#0d3547"></path><path d="M-52 316.7L-8 594.1L0 499.6Z" fill="#081c2a" stroke="#081c2a"></path><path d="M-8 594.1L0 613.1L0 600Z" fill="#0e5065" stroke="#0e5065"></path><path d="M0 600L0 613.1L43 600Z" fill="#0e5065" stroke="#0e5065"></path></g></svg>