<svg id="visual" viewBox="0 0 1920 200" width="1920" height="200" xmlns="http://www.w3.org/2000/svg" xmlns:xlink="http://www.w3.org/1999/xlink" version="1.1"><path d="M0 112L26.7 110.2C53.3 108.3 106.7 104.7 160 95.8C213.3 87 266.7 73 320 71.7C373.3 70.3 426.7 81.7 480 91.3C533.3 101 586.7 109 640 108.7C693.3 108.3 746.7 99.7 800 91.8C853.3 84 906.7 77 960 78.3C1013.3 79.7 1066.7 89.3 1120 95.7C1173.3 102 1226.7 105 1280 109.2C1333.3 113.3 1386.7 118.7 1440 115.7C1493.3 112.7 1546.7 101.3 1600 95C1653.3 88.7 1706.7 87.3 1760 92.3C1813.3 97.3 1866.7 108.7 1893.3 114.3L1920 120L1920 201L1893.3 201C1866.7 201 1813.3 201 1760 201C1706.7 201 1653.3 201 1600 201C1546.7 201 1493.3 201 1440 201C1386.7 201 1333.3 201 1280 201C1226.7 201 1173.3 201 1120 201C1066.7 201 1013.3 201 960 201C906.7 201 853.3 201 800 201C746.7 201 693.3 201 640 201C586.7 201 533.3 201 480 201C426.7 201 373.3 201 320 201C266.7 201 213.3 201 160 201C106.7 201 53.3 201 26.7 201L0 201Z" fill="#089bab" stroke-linecap="round" stroke-linejoin="miter"></path></svg>