<svg id="visual" viewBox="0 0 1920 200" width="1920" height="200" xmlns="http://www.w3.org/2000/svg" xmlns:xlink="http://www.w3.org/1999/xlink" version="1.1"><path d="M0 87L17.8 97C35.7 107 71.3 127 106.8 138.3C142.3 149.7 177.7 152.3 213.2 147C248.7 141.7 284.3 128.3 320 115C355.7 101.7 391.3 88.3 426.8 89.7C462.3 91 497.7 107 533.2 103.7C568.7 100.3 604.3 77.7 640 67.8C675.7 58 711.3 61 746.8 69.8C782.3 78.7 817.7 93.3 853.2 90C888.7 86.7 924.3 65.3 960 62.3C995.7 59.3 1031.3 74.7 1066.8 79.3C1102.3 84 1137.7 78 1173.2 83.3C1208.7 88.7 1244.3 105.3 1280 100C1315.7 94.7 1351.3 67.3 1386.8 59C1422.3 50.7 1457.7 61.3 1493.2 65.8C1528.7 70.3 1564.3 68.7 1600 80.5C1635.7 92.3 1671.3 117.7 1706.8 125.2C1742.3 132.7 1777.7 122.3 1813.2 110.7C1848.7 99 1884.3 86 1902.2 79.5L1920 73L1920 0L1902.2 0C1884.3 0 1848.7 0 1813.2 0C1777.7 0 1742.3 0 1706.8 0C1671.3 0 1635.7 0 1600 0C1564.3 0 1528.7 0 1493.2 0C1457.7 0 1422.3 0 1386.8 0C1351.3 0 1315.7 0 1280 0C1244.3 0 1208.7 0 1173.2 0C1137.7 0 1102.3 0 1066.8 0C1031.3 0 995.7 0 960 0C924.3 0 888.7 0 853.2 0C817.7 0 782.3 0 746.8 0C711.3 0 675.7 0 640 0C604.3 0 568.7 0 533.2 0C497.7 0 462.3 0 426.8 0C391.3 0 355.7 0 320 0C284.3 0 248.7 0 213.2 0C177.7 0 142.3 0 106.8 0C71.3 0 35.7 0 17.8 0L0 0Z" fill="#089bab" stroke-linecap="round" stroke-linejoin="miter"></path></svg>